<?xml version="1.0" standalone="no"?>
<!DOCTYPE svg PUBLIC "-//W3C//DTD SVG 20010904//EN"
 "http://www.w3.org/TR/2001/REC-SVG-20010904/DTD/svg10.dtd">
<svg version="1.0" xmlns="http://www.w3.org/2000/svg"
 width="700.000000pt" height="700.000000pt" viewBox="0 0 700.000000 700.000000"
 preserveAspectRatio="xMidYMid meet">
<metadata>
Created by potrace 1.11, written by Peter Selinger 2001-2013
</metadata>
<g transform="translate(0.000000,700.000000) scale(0.100000,-0.100000)"
fill="#000000" stroke="none">
<path d="M3278 6995 c-1 -1 -42 -6 -89 -9 -47 -4 -94 -8 -105 -10 -10 -2 -45
-7 -78 -11 -75 -9 -190 -31 -316 -60 -154 -35 -320 -87 -470 -147 -132 -52
-371 -167 -455 -218 -27 -17 -58 -33 -67 -36 -10 -4 -18 -10 -18 -15 0 -5 -5
-9 -11 -9 -14 0 -141 -85 -275 -185 -384 -288 -719 -673 -956 -1100 -49 -87
-148 -289 -148 -301 0 -2 -9 -23 -20 -47 -57 -123 -157 -435 -186 -582 -2 -11
-10 -54 -19 -95 -47 -238 -60 -384 -60 -675 0 -196 6 -309 20 -412 10 -67 14
-99 20 -148 4 -27 10 -66 15 -85 5 -19 12 -48 14 -65 9 -48 13 -65 36 -155 21
-85 73 -257 89 -295 5 -11 26 -65 46 -120 51 -133 158 -353 241 -495 38 -63
70 -117 74 -120 3 -3 31 -43 62 -90 185 -277 473 -578 768 -801 47 -35 87 -67
88 -71 2 -5 8 -8 13 -8 6 0 40 -21 76 -46 85 -59 290 -176 423 -241 303 -147
693 -265 1015 -308 22 -2 56 -7 75 -10 187 -26 697 -27 838 0 16 3 104 15 147
20 194 25 552 129 797 232 125 52 370 175 406 204 14 10 29 19 34 19 5 0 14 5
21 10 7 6 64 45 127 86 236 156 501 388 672 588 34 39 64 73 68 76 3 3 35 43
71 90 137 177 241 340 340 530 49 95 71 140 137 290 34 78 121 335 147 440 16
63 19 74 30 123 14 60 55 299 60 352 4 33 9 71 11 85 9 47 11 525 3 605 -15
165 -21 220 -24 225 -2 3 -6 30 -10 60 -17 136 -88 414 -153 600 -293 839
-915 1552 -1706 1954 -334 170 -725 299 -1036 341 -19 3 -46 7 -60 10 -13 2
-52 7 -86 11 -33 3 -74 8 -90 10 -33 6 -540 14 -546 9z m462 -829 c75 -7 134
-14 170 -21 14 -2 40 -7 58 -10 75 -12 97 -17 204 -44 285 -74 551 -193 798
-356 267 -176 500 -397 688 -653 114 -155 245 -386 312 -552 12 -30 28 -68 35
-85 20 -49 76 -228 91 -290 1 -5 9 -39 17 -75 41 -173 60 -364 60 -590 0 -186
-14 -335 -44 -486 -5 -28 -12 -62 -14 -76 -12 -67 -58 -225 -93 -323 -210
-586 -611 -1076 -1143 -1398 -108 -65 -299 -160 -399 -197 -47 -17 -98 -37
-115 -43 -16 -6 -34 -13 -40 -14 -5 -1 -41 -12 -80 -23 -249 -72 -476 -104
-750 -104 -207 0 -374 18 -564 58 -136 29 -415 117 -435 137 -6 5 -16 9 -24 9
-21 0 -278 131 -380 194 -443 274 -818 700 -1027 1166 -66 148 -72 163 -109
279 -122 378 -159 759 -111 1164 59 505 286 1018 628 1415 66 78 266 271 347
336 424 340 943 546 1470 582 52 4 96 8 98 9 4 4 288 -3 352 -9z"/>
<path d="M4885 4677 c-27 -14 -64 -40 -81 -58 -17 -19 -152 -207 -300 -419
-147 -212 -312 -448 -366 -525 -54 -77 -102 -147 -108 -155 -156 -224 -217
-307 -225 -306 -5 0 -39 48 -75 105 -94 152 -167 200 -286 188 -101 -10 -152
-52 -240 -198 -36 -61 -67 -109 -69 -107 -1 2 -33 48 -70 103 -38 55 -114 168
-170 250 -56 83 -155 229 -220 325 -154 228 -165 241 -223 273 -97 53 -215 36
-294 -40 -75 -73 -106 -194 -74 -291 12 -34 151 -245 417 -634 220 -321 415
-604 432 -629 77 -112 213 -152 324 -95 60 30 97 70 157 168 26 43 50 80 54
82 5 3 30 -32 57 -77 28 -45 65 -98 83 -118 73 -82 217 -105 307 -49 49 30 86
75 212 255 65 94 139 199 164 235 25 36 95 135 154 220 60 85 124 178 144 205
414 590 624 893 638 923 26 54 24 173 -3 232 -45 96 -119 149 -220 156 -59 4
-76 2 -119 -19z"/>
</g>
</svg>
